<svg version="1.1" id="Layer_1" xmlns="http://www.w3.org/2000/svg" xmlns:xlink="http://www.w3.org/1999/xlink" x="0px" y="0px"
	 width="100%" viewBox="0 0 582 662" enable-background="new 0 0 582 662" xml:space="preserve">
<path fill="#000000" opacity="1.000000" stroke="none" 
	d="
M309.000000,663.000000 
	C206.000015,663.000000 103.500038,663.000000 1.000041,663.000000 
	C1.000028,442.333405 1.000028,221.666779 1.000014,1.000130 
	C194.999893,1.000087 388.999786,1.000087 582.999756,1.000043 
	C582.999878,221.666550 582.999878,442.333099 582.999939,662.999817 
	C491.833344,663.000000 400.666656,663.000000 309.000000,663.000000 
M518.999817,314.500000 
	C518.999817,249.086594 518.999817,183.673203 518.999817,118.236252 
	C373.413544,118.236252 228.375183,118.236252 83.000252,118.236252 
	C83.000252,120.264320 83.000259,122.061035 83.000259,123.857750 
	C83.000259,190.003937 82.960884,256.150208 83.044670,322.296265 
	C83.056602,331.714172 83.191986,341.178192 84.117683,350.537079 
	C85.298660,362.476807 86.615814,374.489288 89.163361,386.189758 
	C94.536781,410.868896 104.538025,433.762817 118.425613,454.877563 
	C128.391144,470.029266 139.563568,484.208008 153.524811,495.959808 
	C160.749023,502.040680 167.753250,508.453857 175.426422,513.916931 
	C197.750046,529.810669 222.142090,541.336731 248.976303,547.513855 
	C264.565125,551.102478 280.272858,553.922241 296.280640,553.879272 
	C306.284332,553.852417 316.367584,553.230164 326.265717,551.823608 
	C338.382538,550.101868 350.546936,548.018250 362.324066,544.763977 
	C380.589630,539.716797 398.083679,532.371399 413.963470,521.893738 
	C423.925720,515.320618 433.863525,508.446564 442.666931,500.447052 
	C453.957275,490.187622 464.967285,479.362000 474.508423,467.501526 
	C485.980438,453.240784 495.052338,437.205933 501.950256,420.121185 
	C508.465912,403.983307 513.726013,387.463562 515.932800,370.121735 
	C516.796143,363.337708 517.311035,356.509644 518.008972,349.704132 
	C518.307129,346.796844 518.910339,343.899567 518.954346,340.991394 
	C519.083008,332.495972 518.999939,323.997375 518.999817,314.500000 
z"/>
<path fill="#EEEEEE" opacity="1.000000" stroke="none" 
	d="
M518.999817,315.000000 
	C518.999939,323.997375 519.083008,332.495972 518.954346,340.991394 
	C518.910339,343.899567 518.307129,346.796844 518.008972,349.704132 
	C517.311035,356.509644 516.796143,363.337708 515.932800,370.121735 
	C513.726013,387.463562 508.465912,403.983307 501.950256,420.121185 
	C495.052338,437.205933 485.980438,453.240784 474.508423,467.501526 
	C464.967285,479.362000 453.957275,490.187622 442.666931,500.447052 
	C433.863525,508.446564 423.925720,515.320618 413.963470,521.893738 
	C398.083679,532.371399 380.589630,539.716797 362.324066,544.763977 
	C350.546936,548.018250 338.382538,550.101868 326.265717,551.823608 
	C316.367584,553.230164 306.284332,553.852417 296.280640,553.879272 
	C280.272858,553.922241 264.565125,551.102478 248.976303,547.513855 
	C222.142090,541.336731 197.750046,529.810669 175.426422,513.916931 
	C167.753250,508.453857 160.749023,502.040680 153.524811,495.959808 
	C139.563568,484.208008 128.391144,470.029266 118.425613,454.877563 
	C104.538025,433.762817 94.536781,410.868896 89.163361,386.189758 
	C86.615814,374.489288 85.298660,362.476807 84.117683,350.537079 
	C83.191986,341.178192 83.056602,331.714172 83.044670,322.296265 
	C82.960884,256.150208 83.000259,190.003937 83.000259,123.857750 
	C83.000259,122.061035 83.000252,120.264320 83.000252,118.236252 
	C228.375183,118.236252 373.413544,118.236252 518.999817,118.236252 
	C518.999817,183.673203 518.999817,249.086594 518.999817,315.000000 
M327.500549,133.999756 
	C321.402954,133.999756 315.305389,133.999756 309.293945,133.999756 
	C309.293945,198.985947 309.293945,263.383392 309.293945,327.706024 
	C373.985992,327.706024 438.383423,327.706024 502.706024,327.706024 
	C502.706024,263.013977 502.706024,198.616531 502.706024,133.999756 
	C444.441559,133.999756 386.470978,133.999756 327.500549,133.999756 
M103.967560,381.420044 
	C107.962433,393.240356 111.574432,405.207489 116.037697,416.848236 
	C123.625000,436.636688 135.289246,454.107147 149.425491,469.692810 
	C158.151505,479.313507 167.939438,488.113556 178.034576,496.317383 
	C194.100952,509.373779 212.152908,519.364807 231.820953,525.863892 
	C244.290421,529.984314 257.150055,533.064758 270.002899,535.829956 
	C277.389343,537.419128 285.111450,537.448303 292.746582,538.185974 
	C292.746582,473.067169 292.746582,408.683960 292.746582,344.186371 
	C227.750305,344.186371 163.007767,344.186371 97.999130,344.186371 
	C99.138367,352.188751 100.157974,359.992493 101.391556,367.762238 
	C102.073120,372.055115 103.113373,376.291077 103.967560,381.420044 
M293.106293,222.500000 
	C293.106293,193.100769 293.106293,163.701538 293.106293,134.370911 
	C227.899506,134.370911 163.559418,134.370911 99.238022,134.370911 
	C99.238022,199.070724 99.238022,263.292816 99.238022,327.718079 
	C163.922623,327.718079 228.262421,327.718079 293.106476,327.718079 
	C293.106476,292.721588 293.106476,258.110809 293.106293,222.500000 
M323.000214,361.501282 
	C323.000214,355.738342 323.000214,349.975433 323.000214,344.297211 
	C318.010956,344.297211 313.607819,344.297211 309.233704,344.297211 
	C309.233704,408.993561 309.233704,473.392181 309.233704,538.139038 
	C313.836731,537.647278 318.175293,537.183716 323.000214,536.668152 
	C323.000214,478.670624 323.000214,420.585632 323.000214,361.501282 
M353.000214,444.500000 
	C353.000214,411.100220 353.000214,377.700470 353.000214,344.254089 
	C348.093475,344.254089 343.692871,344.254089 339.156799,344.254089 
	C339.156799,407.542053 339.156799,470.575714 339.156799,534.136230 
	C342.180115,533.615967 344.961731,532.993713 347.777740,532.686584 
	C351.985779,532.227600 353.152008,530.171387 353.115631,525.899963 
	C352.887390,499.101562 353.000214,472.300323 353.000214,444.500000 
M383.000214,350.575897 
	C383.000214,348.472137 383.000214,346.368378 383.000214,344.268616 
	C378.063507,344.268616 373.662231,344.268616 369.356384,344.268616 
	C369.356384,404.975708 369.356384,465.413300 369.356384,526.256958 
	C374.210114,524.291931 378.614380,522.508789 383.000214,520.733215 
	C383.000214,464.086090 383.000214,407.824097 383.000214,350.575897 
M398.999786,475.500000 
	C398.999786,487.589233 398.999786,499.678497 398.999786,512.619995 
	C402.677094,510.439056 405.565308,508.466064 408.675964,506.949341 
	C412.299011,505.182861 413.095703,502.519775 413.085693,498.658112 
	C412.956451,448.890808 413.000183,399.123047 413.000183,349.355408 
	C413.000214,347.606018 413.000214,345.856628 413.000214,344.346619 
	C407.907532,344.346619 403.505676,344.346619 398.999786,344.346619 
	C398.999786,387.962219 398.999786,431.231110 398.999786,475.500000 
M432.631989,343.999786 
	C428.628479,343.151459 428.975922,345.780640 428.977661,348.388641 
	C429.008240,394.358307 428.999817,440.328003 428.999817,486.297668 
	C428.999817,488.045685 428.999786,489.793701 428.999786,491.830048 
	C430.909973,490.588776 432.537079,489.839539 433.772705,488.674957 
	C438.999207,483.748962 443.481659,479.362518 443.321167,470.521820 
	C442.589630,430.228333 443.000183,389.914154 443.000183,349.607391 
	C443.000214,347.833405 443.000214,346.059418 443.000214,343.999786 
	C439.525848,343.999786 436.558655,343.999786 432.631989,343.999786 
M473.000214,412.500000 
	C473.000214,389.752106 473.000214,367.004242 473.000214,344.276733 
	C468.048370,344.276733 463.645966,344.276733 459.259705,344.276733 
	C459.259705,383.214691 459.259705,421.875122 459.259705,461.452911 
	C461.181885,459.044525 462.600311,457.355530 463.923096,455.594635 
	C469.402161,448.300903 474.713135,441.142273 473.156769,430.959747 
	C472.286316,425.264923 473.000214,419.327881 473.000214,412.500000 
M494.956268,393.324432 
	C499.285278,377.240448 502.340729,360.962860 503.039978,344.296722 
	C498.010620,344.296722 493.608337,344.296722 489.278076,344.296722 
	C489.278076,365.868988 489.278076,387.143127 489.278076,408.417297 
	C489.495026,408.455383 489.711975,408.493469 489.928925,408.531555 
	C491.445496,403.692413 492.962067,398.853241 494.956268,393.324432 
z"/>
<path fill="#000000" opacity="1.000000" stroke="none" 
	d="
M328.000488,133.999756 
	C386.470978,133.999756 444.441559,133.999756 502.706024,133.999756 
	C502.706024,198.616531 502.706024,263.013977 502.706024,327.706024 
	C438.383423,327.706024 373.985992,327.706024 309.293945,327.706024 
	C309.293945,263.383392 309.293945,198.985947 309.293945,133.999756 
	C315.305389,133.999756 321.402954,133.999756 328.000488,133.999756 
z"/>
<path fill="#000000" opacity="1.000000" stroke="none" 
	d="
M103.979744,380.986359 
	C103.113373,376.291077 102.073120,372.055115 101.391556,367.762238 
	C100.157974,359.992493 99.138367,352.188751 97.999130,344.186371 
	C163.007767,344.186371 227.750305,344.186371 292.746582,344.186371 
	C292.746582,408.683960 292.746582,473.067169 292.746582,538.185974 
	C285.111450,537.448303 277.389343,537.419128 270.002899,535.829956 
	C257.150055,533.064758 244.290421,529.984314 231.820953,525.863892 
	C212.152908,519.364807 194.100952,509.373779 178.034576,496.317383 
	C167.939438,488.113556 158.151505,479.313507 149.425491,469.692810 
	C135.289246,454.107147 123.625000,436.636688 116.037697,416.848236 
	C111.574432,405.207489 107.962433,393.240356 103.979744,380.986359 
z"/>
<path fill="#7BA6D3" opacity="1.000000" stroke="none" 
	d="
M293.106384,223.000000 
	C293.106476,258.110809 293.106476,292.721588 293.106476,327.718079 
	C228.262421,327.718079 163.922623,327.718079 99.238022,327.718079 
	C99.238022,263.292816 99.238022,199.070724 99.238022,134.370911 
	C163.559418,134.370911 227.899506,134.370911 293.106293,134.370911 
	C293.106293,163.701538 293.106293,193.100769 293.106384,223.000000 
M134.141647,170.951355 
	C134.141647,211.509872 134.141647,252.068375 134.141647,292.626709 
	C175.807343,292.626709 216.684479,292.626709 257.651978,292.626709 
	C257.651978,251.379547 257.651978,210.506607 257.651978,169.219620 
	C216.544601,169.219620 175.783386,169.219620 134.574051,169.255524 
	C134.268539,169.423492 134.150330,169.678391 134.141647,170.951355 
M116.730293,251.990036 
	C119.990105,251.990036 123.249916,251.990036 126.667297,251.990036 
	C126.667297,246.986267 126.667297,242.648758 126.667297,238.361053 
	C122.239067,238.361053 118.344597,238.361053 113.992073,238.361053 
	C113.992073,241.489517 113.781151,244.293228 114.070496,247.044342 
	C114.246567,248.718475 115.194290,250.311447 116.730293,251.990036 
M275.245758,238.010269 
	C271.993408,238.010269 268.741089,238.010269 265.429749,238.010269 
	C265.429749,243.015747 265.429749,247.353119 265.429749,251.648407 
	C269.752655,251.648407 273.640991,251.648407 278.120300,251.648407 
	C278.120300,248.863220 278.370392,246.388260 278.043518,243.992020 
	C277.767242,241.966797 276.822388,240.032761 275.245758,238.010269 
M117.789314,279.006439 
	C120.723137,279.006439 123.656952,279.006439 126.890106,279.006439 
	C126.890106,274.557312 126.890106,270.150574 126.890106,265.519806 
	C122.499443,265.519806 118.396492,265.519806 114.032997,265.519806 
	C114.032997,270.114960 114.032997,274.352356 114.032997,278.861328 
	C114.981499,278.908813 115.953064,278.957489 117.789314,279.006439 
M272.438751,182.999603 
	C270.044739,182.999603 267.650726,182.999603 264.999847,182.999603 
	C264.999847,186.059357 264.999847,188.205994 264.999847,190.352646 
	C264.999847,192.435135 264.999847,194.517624 264.999847,196.489975 
	C278.347107,198.226273 280.350220,195.934845 277.205841,183.230209 
	C275.973694,183.156052 274.675476,183.077911 272.438751,182.999603 
M117.684013,183.000885 
	C116.461060,183.885849 114.309174,184.656326 114.183441,185.676514 
	C113.747337,189.215149 114.015160,192.840530 114.015160,196.312454 
	C126.450554,198.595886 127.649963,197.583801 126.984871,185.936386 
	C126.939583,185.143188 126.791763,184.355850 126.619843,182.999329 
	C123.836357,182.999329 121.228889,182.999329 117.684013,183.000885 
M272.245087,279.006104 
	C274.018250,279.006104 275.791443,279.006104 277.872986,279.006104 
	C277.872986,274.592377 277.872986,270.188812 277.872986,265.476105 
	C273.559540,265.476105 269.448944,265.476105 265.460144,265.476105 
	C265.460144,270.139526 265.460144,274.490692 265.460144,279.006104 
	C267.728821,279.006104 269.532623,279.006104 272.245087,279.006104 
M119.839493,210.440994 
	C117.965630,210.440994 116.091766,210.440994 114.203506,210.440994 
	C114.203506,215.405899 114.203506,219.815689 114.203506,223.875885 
	C118.532959,223.875885 122.458977,223.875885 126.773697,223.875885 
	C126.773697,219.298523 126.773697,215.057556 126.773697,210.652710 
	C124.627434,210.652710 122.567307,210.652710 119.839493,210.440994 
M175.216141,307.134003 
	C174.243210,312.648254 177.079849,313.814484 181.811249,313.040466 
	C183.265747,312.802521 184.854675,313.253723 186.262253,312.905334 
	C187.298126,312.648956 188.878281,311.664886 188.940338,310.901367 
	C189.226913,307.376068 189.066818,303.814453 189.066818,300.317444 
	C183.861374,300.317444 179.622391,300.317444 175.163788,300.317444 
	C175.163788,302.564606 175.163788,304.490479 175.216141,307.134003 
M230.909866,312.490204 
	C234.597046,312.644501 238.286667,312.921143 241.969330,312.847992 
	C242.690781,312.833649 243.943314,311.501862 243.995667,310.714203 
	C244.221619,307.315369 244.092316,303.892883 244.092316,300.410065 
	C238.975357,300.410065 234.639099,300.410065 230.542969,300.410065 
	C230.542969,304.517670 230.542969,308.201508 230.909866,312.490204 
M175.110687,159.152405 
	C176.122345,160.102356 177.114120,161.833862 178.149277,161.860199 
	C181.688293,161.950195 185.244095,161.456467 188.784988,161.100632 
	C188.919388,161.087128 189.038239,160.197067 189.041321,159.714706 
	C189.063217,156.298676 189.052979,152.882462 189.052979,149.412292 
	C183.960052,149.412292 179.624573,149.412292 175.055450,149.412292 
	C175.055450,152.702805 175.055450,155.579407 175.110687,159.152405 
M238.529343,162.006271 
	C244.844803,162.038345 245.620651,160.031708 243.295380,149.261932 
	C239.107452,149.261932 234.860428,149.261932 230.660126,149.261932 
	C230.660126,153.596817 230.660126,157.712128 230.660126,162.006104 
	C233.306870,162.006104 235.462036,162.006104 238.529343,162.006271 
M268.143097,224.014236 
	C271.230011,224.014236 274.316956,224.014236 277.741394,224.014236 
	C277.741394,219.201126 277.741394,214.887680 277.741394,210.585754 
	C273.344940,210.585754 269.379639,210.585754 265.003265,210.585754 
	C265.003265,214.585358 264.890442,218.363922 265.106628,222.123550 
	C265.145874,222.805893 266.532227,223.410751 268.143097,224.014236 
M161.000229,157.388123 
	C161.000229,154.787918 161.000229,152.187714 161.000229,149.392929 
	C156.403519,149.392929 152.397705,149.392929 148.317642,149.392929 
	C148.317642,153.680084 148.317642,157.570511 148.317642,162.008194 
	C151.563828,162.008194 154.520645,161.791779 157.430801,162.067657 
	C160.481750,162.356873 161.248917,160.949478 161.000229,157.388123 
M203.905609,161.730072 
	C207.791275,161.730072 211.676926,161.730072 215.549561,161.730072 
	C215.549561,157.298843 215.549561,153.282471 215.549561,149.376663 
	C211.201004,149.376663 207.308899,149.376663 203.260513,149.376663 
	C203.260513,153.522552 203.260513,157.295761 203.905609,161.730072 
M215.729446,312.094879 
	C215.729446,308.205750 215.729446,304.316620 215.729446,300.290771 
	C211.367981,300.290771 207.482635,300.290771 203.384399,300.290771 
	C203.384399,304.587524 203.384399,308.589050 203.384399,312.739410 
	C207.533783,312.739410 211.301041,312.739410 215.729446,312.094879 
M160.988708,302.751373 
	C160.298355,301.849792 159.664536,300.228973 158.907974,300.169495 
	C155.382080,299.892303 151.822250,300.046631 148.362518,300.046631 
	C148.362518,304.781219 148.362518,308.666931 148.362518,312.545166 
	C152.725967,312.545166 156.726883,312.545166 160.998199,312.545166 
	C160.998199,309.290100 160.998199,306.488617 160.988708,302.751373 
z"/>
<path fill="#000000" opacity="1.000000" stroke="none" 
	d="
M323.000214,362.000977 
	C323.000214,420.585632 323.000214,478.670624 323.000214,536.668152 
	C318.175293,537.183716 313.836731,537.647278 309.233704,538.139038 
	C309.233704,473.392181 309.233704,408.993561 309.233704,344.297211 
	C313.607819,344.297211 318.010956,344.297211 323.000214,344.297211 
	C323.000214,349.975433 323.000214,355.738342 323.000214,362.000977 
z"/>
<path fill="#000000" opacity="1.000000" stroke="none" 
	d="
M353.000214,445.000000 
	C353.000214,472.300323 352.887390,499.101562 353.115631,525.899963 
	C353.152008,530.171387 351.985779,532.227600 347.777740,532.686584 
	C344.961731,532.993713 342.180115,533.615967 339.156799,534.136230 
	C339.156799,470.575714 339.156799,407.542053 339.156799,344.254089 
	C343.692871,344.254089 348.093475,344.254089 353.000214,344.254089 
	C353.000214,377.700470 353.000214,411.100220 353.000214,445.000000 
z"/>
<path fill="#000000" opacity="1.000000" stroke="none" 
	d="
M383.000214,351.069000 
	C383.000214,407.824097 383.000214,464.086090 383.000214,520.733215 
	C378.614380,522.508789 374.210114,524.291931 369.356384,526.256958 
	C369.356384,465.413300 369.356384,404.975708 369.356384,344.268616 
	C373.662231,344.268616 378.063507,344.268616 383.000214,344.268616 
	C383.000214,346.368378 383.000214,348.472137 383.000214,351.069000 
z"/>
<path fill="#000000" opacity="1.000000" stroke="none" 
	d="
M398.999786,475.000000 
	C398.999786,431.231110 398.999786,387.962219 398.999786,344.346619 
	C403.505676,344.346619 407.907532,344.346619 413.000214,344.346619 
	C413.000214,345.856628 413.000214,347.606018 413.000183,349.355408 
	C413.000183,399.123047 412.956451,448.890808 413.085693,498.658112 
	C413.095703,502.519775 412.299011,505.182861 408.675964,506.949341 
	C405.565308,508.466064 402.677094,510.439056 398.999786,512.619995 
	C398.999786,499.678497 398.999786,487.589233 398.999786,475.000000 
z"/>
<path fill="#000000" opacity="1.000000" stroke="none" 
	d="
M433.111694,343.999786 
	C436.558655,343.999786 439.525848,343.999786 443.000214,343.999786 
	C443.000214,346.059418 443.000214,347.833405 443.000183,349.607391 
	C443.000183,389.914154 442.589630,430.228333 443.321167,470.521820 
	C443.481659,479.362518 438.999207,483.748962 433.772705,488.674957 
	C432.537079,489.839539 430.909973,490.588776 428.999786,491.830048 
	C428.999786,489.793701 428.999817,488.045685 428.999817,486.297668 
	C428.999817,440.328003 429.008240,394.358307 428.977661,348.388641 
	C428.975922,345.780640 428.628479,343.151459 433.111694,343.999786 
z"/>
<path fill="#000000" opacity="1.000000" stroke="none" 
	d="
M473.000214,413.000000 
	C473.000214,419.327881 472.286316,425.264923 473.156769,430.959747 
	C474.713135,441.142273 469.402161,448.300903 463.923096,455.594635 
	C462.600311,457.355530 461.181885,459.044525 459.259705,461.452911 
	C459.259705,421.875122 459.259705,383.214691 459.259705,344.276733 
	C463.645966,344.276733 468.048370,344.276733 473.000214,344.276733 
	C473.000214,367.004242 473.000214,389.752106 473.000214,413.000000 
z"/>
<path fill="#000000" opacity="1.000000" stroke="none" 
	d="
M494.717438,393.669250 
	C492.962067,398.853241 491.445496,403.692413 489.928925,408.531555 
	C489.711975,408.493469 489.495026,408.455383 489.278076,408.417297 
	C489.278076,387.143127 489.278076,365.868988 489.278076,344.296722 
	C493.608337,344.296722 498.010620,344.296722 503.039978,344.296722 
	C502.340729,360.962860 499.285278,377.240448 494.717438,393.669250 
z"/>
<path fill="#EEEEEE" opacity="1.000000" stroke="none" 
	d="
M135.022186,169.219620 
	C175.783386,169.219620 216.544601,169.219620 257.651978,169.219620 
	C257.651978,210.506607 257.651978,251.379547 257.651978,292.626709 
	C216.684479,292.626709 175.807343,292.626709 134.141647,292.626709 
	C134.141647,252.068375 134.141647,211.509872 134.340576,170.381317 
	C134.741364,169.647522 134.902267,169.450287 135.022186,169.219620 
M225.058807,263.711273 
	C222.068405,268.590912 222.656662,272.465210 226.982483,276.380493 
	C230.467422,279.534729 235.786942,279.901764 239.324417,277.232086 
	C244.087402,273.637543 245.250076,269.164093 242.704269,264.227783 
	C239.247879,257.525848 231.436386,256.992889 225.058807,263.711273 
M148.711838,196.443344 
	C149.079437,197.188644 149.249023,198.261078 149.848190,198.623779 
	C152.762589,200.387909 155.806213,203.319427 158.777374,203.288269 
	C163.340286,203.240463 167.280609,200.357742 167.948288,195.062408 
	C168.527939,190.465286 167.816956,185.919388 162.757080,184.483841 
	C159.732605,183.625763 155.732758,183.473068 153.047806,184.790100 
	C149.004669,186.773331 146.949921,190.823975 148.711838,196.443344 
z"/>
<path fill="#EEEEEE" opacity="1.000000" stroke="none" 
	d="
M116.262848,251.965454 
	C115.194290,250.311447 114.246567,248.718475 114.070496,247.044342 
	C113.781151,244.293228 113.992073,241.489517 113.992073,238.361053 
	C118.344597,238.361053 122.239067,238.361053 126.667297,238.361053 
	C126.667297,242.648758 126.667297,246.986267 126.667297,251.990036 
	C123.249916,251.990036 119.990105,251.990036 116.262848,251.965454 
z"/>
<path fill="#EEEEEE" opacity="1.000000" stroke="none" 
	d="
M275.709595,238.034332 
	C276.822388,240.032761 277.767242,241.966797 278.043518,243.992020 
	C278.370392,246.388260 278.120300,248.863220 278.120300,251.648407 
	C273.640991,251.648407 269.752655,251.648407 265.429749,251.648407 
	C265.429749,247.353119 265.429749,243.015747 265.429749,238.010269 
	C268.741089,238.010269 271.993408,238.010269 275.709595,238.034332 
z"/>
<path fill="#ECEDED" opacity="1.000000" stroke="none" 
	d="
M117.356964,279.006287 
	C115.953064,278.957489 114.981499,278.908813 114.032997,278.861328 
	C114.032997,274.352356 114.032997,270.114960 114.032997,265.519806 
	C118.396492,265.519806 122.499443,265.519806 126.890106,265.519806 
	C126.890106,270.150574 126.890106,274.557312 126.890106,279.006439 
	C123.656952,279.006439 120.723137,279.006439 117.356964,279.006287 
z"/>
<path fill="#EEEEEE" opacity="1.000000" stroke="none" 
	d="
M272.908020,182.999695 
	C274.675476,183.077911 275.973694,183.156052 277.205841,183.230209 
	C280.350220,195.934845 278.347107,198.226273 264.999847,196.489975 
	C264.999847,194.517624 264.999847,192.435135 264.999847,190.352646 
	C264.999847,188.205994 264.999847,186.059357 264.999847,182.999603 
	C267.650726,182.999603 270.044739,182.999603 272.908020,182.999695 
z"/>
<path fill="#EEEEEE" opacity="1.000000" stroke="none" 
	d="
M118.152718,183.000107 
	C121.228889,182.999329 123.836357,182.999329 126.619843,182.999329 
	C126.791763,184.355850 126.939583,185.143188 126.984871,185.936386 
	C127.649963,197.583801 126.450554,198.595886 114.015160,196.312454 
	C114.015160,192.840530 113.747337,189.215149 114.183441,185.676514 
	C114.309174,184.656326 116.461060,183.885849 118.152718,183.000107 
z"/>
<path fill="#ECEDED" opacity="1.000000" stroke="none" 
	d="
M271.790771,279.006104 
	C269.532623,279.006104 267.728821,279.006104 265.460144,279.006104 
	C265.460144,274.490692 265.460144,270.139526 265.460144,265.476105 
	C269.448944,265.476105 273.559540,265.476105 277.872986,265.476105 
	C277.872986,270.188812 277.872986,274.592377 277.872986,279.006104 
	C275.791443,279.006104 274.018250,279.006104 271.790771,279.006104 
z"/>
<path fill="#ECEDED" opacity="1.000000" stroke="none" 
	d="
M120.173340,210.546844 
	C122.567307,210.652710 124.627434,210.652710 126.773697,210.652710 
	C126.773697,215.057556 126.773697,219.298523 126.773697,223.875885 
	C122.458977,223.875885 118.532959,223.875885 114.203506,223.875885 
	C114.203506,219.815689 114.203506,215.405899 114.203506,210.440994 
	C116.091766,210.440994 117.965630,210.440994 120.173340,210.546844 
z"/>
<path fill="#EDEDEE" opacity="1.000000" stroke="none" 
	d="
M175.189972,306.775208 
	C175.163788,304.490479 175.163788,302.564606 175.163788,300.317444 
	C179.622391,300.317444 183.861374,300.317444 189.066818,300.317444 
	C189.066818,303.814453 189.226913,307.376068 188.940338,310.901367 
	C188.878281,311.664886 187.298126,312.648956 186.262253,312.905334 
	C184.854675,313.253723 183.265747,312.802521 181.811249,313.040466 
	C177.079849,313.814484 174.243210,312.648254 175.189972,306.775208 
z"/>
<path fill="#EDEDEE" opacity="1.000000" stroke="none" 
	d="
M230.726410,312.187775 
	C230.542969,308.201508 230.542969,304.517670 230.542969,300.410065 
	C234.639099,300.410065 238.975357,300.410065 244.092316,300.410065 
	C244.092316,303.892883 244.221619,307.315369 243.995667,310.714203 
	C243.943314,311.501862 242.690781,312.833649 241.969330,312.847992 
	C238.286667,312.921143 234.597046,312.644501 230.726410,312.187775 
z"/>
<path fill="#EDEDEE" opacity="1.000000" stroke="none" 
	d="
M175.083069,158.804199 
	C175.055450,155.579407 175.055450,152.702805 175.055450,149.412292 
	C179.624573,149.412292 183.960052,149.412292 189.052979,149.412292 
	C189.052979,152.882462 189.063217,156.298676 189.041321,159.714706 
	C189.038239,160.197067 188.919388,161.087128 188.784988,161.100632 
	C185.244095,161.456467 181.688293,161.950195 178.149277,161.860199 
	C177.114120,161.833862 176.122345,160.102356 175.083069,158.804199 
z"/>
<path fill="#ECEDED" opacity="1.000000" stroke="none" 
	d="
M238.073273,162.006195 
	C235.462036,162.006104 233.306870,162.006104 230.660126,162.006104 
	C230.660126,157.712128 230.660126,153.596817 230.660126,149.261932 
	C234.860428,149.261932 239.107452,149.261932 243.295380,149.261932 
	C245.620651,160.031708 244.844803,162.038345 238.073273,162.006195 
z"/>
<path fill="#ECEDEE" opacity="1.000000" stroke="none" 
	d="
M267.719910,224.032806 
	C266.532227,223.410751 265.145874,222.805893 265.106628,222.123550 
	C264.890442,218.363922 265.003265,214.585358 265.003265,210.585754 
	C269.379639,210.585754 273.344940,210.585754 277.741394,210.585754 
	C277.741394,214.887680 277.741394,219.201126 277.741394,224.014236 
	C274.316956,224.014236 271.230011,224.014236 267.719910,224.032806 
z"/>
<path fill="#EEEEEE" opacity="1.000000" stroke="none" 
	d="
M160.999420,157.859558 
	C161.248917,160.949478 160.481750,162.356873 157.430801,162.067657 
	C154.520645,161.791779 151.563828,162.008194 148.317642,162.008194 
	C148.317642,157.570511 148.317642,153.680084 148.317642,149.392929 
	C152.397705,149.392929 156.403519,149.392929 161.000229,149.392929 
	C161.000229,152.187714 161.000229,154.787918 160.999420,157.859558 
z"/>
<path fill="#EEEEEE" opacity="1.000000" stroke="none" 
	d="
M203.583069,161.399536 
	C203.260513,157.295761 203.260513,153.522552 203.260513,149.376663 
	C207.308899,149.376663 211.201004,149.376663 215.549561,149.376663 
	C215.549561,153.282471 215.549561,157.298843 215.549561,161.730072 
	C211.676926,161.730072 207.791275,161.730072 203.583069,161.399536 
z"/>
<path fill="#EEEEEE" opacity="1.000000" stroke="none" 
	d="
M215.398865,312.417145 
	C211.301041,312.739410 207.533783,312.739410 203.384399,312.739410 
	C203.384399,308.589050 203.384399,304.587524 203.384399,300.290771 
	C207.482635,300.290771 211.367981,300.290771 215.729446,300.290771 
	C215.729446,304.316620 215.729446,308.205750 215.398865,312.417145 
z"/>
<path fill="#EEEEEE" opacity="1.000000" stroke="none" 
	d="
M160.993454,303.219238 
	C160.998199,306.488617 160.998199,309.290100 160.998199,312.545166 
	C156.726883,312.545166 152.725967,312.545166 148.362518,312.545166 
	C148.362518,308.666931 148.362518,304.781219 148.362518,300.046631 
	C151.822250,300.046631 155.382080,299.892303 158.907974,300.169495 
	C159.664536,300.228973 160.298355,301.849792 160.993454,303.219238 
z"/>
<path fill="#D1DCE7" opacity="1.000000" stroke="none" 
	d="
M134.798126,169.237579 
	C134.902267,169.450287 134.741364,169.647522 134.379440,169.915771 
	C134.150330,169.678391 134.268539,169.423492 134.798126,169.237579 
z"/>
<path fill="#7BA6D3" opacity="1.000000" stroke="none" 
	d="
M225.249512,263.380615 
	C231.436386,256.992889 239.247879,257.525848 242.704269,264.227783 
	C245.250076,269.164093 244.087402,273.637543 239.324417,277.232086 
	C235.786942,279.901764 230.467422,279.534729 226.982483,276.380493 
	C222.656662,272.465210 222.068405,268.590912 225.249512,263.380615 
z"/>
<path fill="#7BA6D3" opacity="1.000000" stroke="none" 
	d="
M148.514893,196.098969 
	C146.949921,190.823975 149.004669,186.773331 153.047806,184.790100 
	C155.732758,183.473068 159.732605,183.625763 162.757080,184.483841 
	C167.816956,185.919388 168.527939,190.465286 167.948288,195.062408 
	C167.280609,200.357742 163.340286,203.240463 158.777374,203.288269 
	C155.806213,203.319427 152.762589,200.387909 149.848190,198.623779 
	C149.249023,198.261078 149.079437,197.188644 148.514893,196.098969 
z"/>
</svg>